<svg height="750" width="720" xmlns="http://www.w3.org/2000/svg">
<rect height="750" fill="#555" width="720"></rect>
<text fill="#7f7" font-family="Courier New" font-size="12" xml:space="preserve">
<tspan x="10" y="26">12 megabytes installed</tspan>
<tspan x="10" y="42"></tspan>
<tspan x="10" y="58">node_modules</tspan>
<tspan x="10" y="74">└─┬ aliyun-sdk@1.9.22 </tspan>
<tspan x="10" y="90">  ├─┬ node_memcached@1.1.3 </tspan>
<tspan x="10" y="106">  │ └─┬ debug@2.6.4 </tspan>
<tspan x="10" y="122">  │   └── ms@0.7.3 </tspan>
<tspan x="10" y="138">  ├── pomelo-protobuf@0.4.0 </tspan>
<tspan x="10" y="154">  ├─┬ protobufjs@4.1.3 </tspan>
<tspan x="10" y="170">  │ ├─┬ ascli@1.0.1 </tspan>
<tspan x="10" y="186">  │ │ ├── colour@0.7.1 </tspan>
<tspan x="10" y="202">  │ │ └── optjs@3.2.2 </tspan>
<tspan x="10" y="218">  │ ├─┬ bytebuffer@4.1.0 </tspan>
<tspan x="10" y="234">  │ │ ├── bufferview@1.0.1 </tspan>
<tspan x="10" y="250">  │ │ └── long@2.4.0 </tspan>
<tspan x="10" y="266">  │ ├─┬ glob@5.0.15 </tspan>
<tspan x="10" y="282">  │ │ ├─┬ inflight@1.0.6 </tspan>
<tspan x="10" y="298">  │ │ │ └── wrappy@1.0.2 </tspan>
<tspan x="10" y="314">  │ │ ├── inherits@2.0.3 </tspan>
<tspan x="10" y="330">  │ │ ├─┬ minimatch@3.0.3 </tspan>
<tspan x="10" y="346">  │ │ │ └─┬ brace-expansion@1.1.7 </tspan>
<tspan x="10" y="362">  │ │ │   ├── balanced-match@0.4.2 </tspan>
<tspan x="10" y="378">  │ │ │   └── concat-map@0.0.1 </tspan>
<tspan x="10" y="394">  │ │ ├── once@1.4.0 </tspan>
<tspan x="10" y="410">  │ │ └── path-is-absolute@1.0.1 </tspan>
<tspan x="10" y="426">  │ └─┬ yargs@3.32.0 </tspan>
<tspan x="10" y="442">  │   ├── camelcase@2.1.1 </tspan>
<tspan x="10" y="458">  │   ├─┬ cliui@3.2.0 </tspan>
<tspan x="10" y="474">  │   │ ├─┬ strip-ansi@3.0.1 </tspan>
<tspan x="10" y="490">  │   │ │ └── ansi-regex@2.1.1 </tspan>
<tspan x="10" y="506">  │   │ └── wrap-ansi@2.1.0 </tspan>
<tspan x="10" y="522">  │   ├── decamelize@1.2.0 </tspan>
<tspan x="10" y="538">  │   ├─┬ os-locale@1.4.0 </tspan>
<tspan x="10" y="554">  │   │ └─┬ lcid@1.0.0 </tspan>
<tspan x="10" y="570">  │   │   └── invert-kv@1.0.0 </tspan>
<tspan x="10" y="586">  │   ├─┬ string-width@1.0.2 </tspan>
<tspan x="10" y="602">  │   │ ├── code-point-at@1.1.0 </tspan>
<tspan x="10" y="618">  │   │ └─┬ is-fullwidth-code-point@1.0.0 </tspan>
<tspan x="10" y="634">  │   │   └── number-is-nan@1.0.1 </tspan>
<tspan x="10" y="650">  │   ├── window-size@0.1.4 </tspan>
<tspan x="10" y="666">  │   └── y18n@3.2.1 </tspan>
<tspan x="10" y="682">  ├─┬ xml2js@0.4.4 </tspan>
<tspan x="10" y="698">  │ └── sax@0.6.1 </tspan>
<tspan x="10" y="714">  └─┬ xmlbuilder@2.6.5 </tspan>
<tspan x="10" y="730">    └── lodash@3.10.1</tspan>
</text>
</svg>
